<svg width="16" height="16" viewBox="0 0 16 16" fill="none" xmlns="http://www.w3.org/2000/svg">
<path d="M7.33333 3.92146V12.8268C7.33333 13.4747 6.80807 14 6.16012 14C5.6643 14 5.22202 13.6883 5.05526 13.2214L3.62432 9.12192M12 8.66667C13.1046 8.66667 14 7.77124 14 6.66667C14 5.5621 13.1046 4.66667 12 4.66667M3.62432 9.12192C2.66953 8.71607 2 7.76955 2 6.66666C2 5.19391 3.1939 4 4.66666 4H5.88806C8.62182 4 10.9713 3.17727 12 2L12 11.3333C10.9713 10.1561 8.62182 9.33333 5.88806 9.33333L4.66665 9.33333C4.29679 9.33333 3.94451 9.25803 3.62432 9.12192Z" stroke="#A7A7A7" stroke-linecap="round" stroke-linejoin="round"/>
</svg>
