<svg width="20" height="20" viewBox="0 0 20 20" fill="none" xmlns="http://www.w3.org/2000/svg">
<rect width="20" height="20" rx="10" fill="#200C9F"/>
<path d="M14.2426 7.37401C14.5551 7.06159 14.5551 6.55506 14.2426 6.24264C13.9302 5.93022 13.4237 5.93022 13.1113 6.24264L10 9.35391L6.88873 6.24264C6.57631 5.93022 6.06978 5.93022 5.75736 6.24264C5.44494 6.55506 5.44494 7.06159 5.75736 7.37401L8.86863 10.4853L5.75736 13.5966C5.44494 13.909 5.44494 14.4155 5.75736 14.7279C6.06978 15.0403 6.57631 15.0403 6.88873 14.7279L10 11.6167L13.1113 14.7279C13.4237 15.0403 13.9302 15.0403 14.2426 14.7279C14.5551 14.4155 14.5551 13.909 14.2426 13.5966L11.1314 10.4853L14.2426 7.37401Z" fill="white"/>
</svg>
