<svg width="16" height="16" viewBox="0 0 16 16" fill="none" xmlns="http://www.w3.org/2000/svg">
<path d="M8 2.66667C8.44203 2.66667 8.86595 2.84226 9.17851 3.15482C9.49107 3.46738 9.66667 3.89131 9.66667 4.33333V6H6.33333V4.33333C6.33333 3.89131 6.50893 3.46738 6.82149 3.15482C7.13405 2.84226 7.55797 2.66667 8 2.66667ZM11.3333 6.12667V4.33333C11.3333 3.44928 10.9821 2.60143 10.357 1.97631C9.7319 1.35119 8.88405 1 8 1C7.11594 1 6.2681 1.35119 5.64298 1.97631C5.01786 2.60143 4.66667 3.44928 4.66667 4.33333V6.12667C3.76667 6.40333 3 7.12167 3 8.16667V12.1667C3 13.5267 4.30167 14.3333 5.5 14.3333H10.5C11.6983 14.3333 13 13.5267 13 12.1667V8.16667C13 7.12167 12.2333 6.40333 11.3333 6.12667Z" fill="#A7A7A7"/>
</svg>
