<svg width="16" height="16" viewBox="0 0 16 16" fill="none" xmlns="http://www.w3.org/2000/svg">
<g clip-path="url(#clip0_690_17377)">
<path d="M8.23501 1.55897C8.16267 1.52045 8.08197 1.50031 8.00001 1.50031C7.91805 1.50031 7.83735 1.52045 7.76501 1.55897L0.265009 5.55897C0.185137 5.60165 0.118354 5.66521 0.071791 5.74289C0.0252282 5.82056 0.000633789 5.90941 0.000633789 5.99997C0.000633789 6.09053 0.0252282 6.17939 0.071791 6.25706C0.118354 6.33473 0.185137 6.3983 0.265009 6.44097L3.18801 7.99997L0.264009 9.55897C0.184137 9.60165 0.117354 9.66522 0.070791 9.74289C0.0242282 9.82056 -0.000366211 9.90942 -0.000366211 9.99997C-0.000366211 10.0905 0.0242282 10.1794 0.070791 10.2571C0.117354 10.3347 0.184137 10.3983 0.264009 10.441L7.76401 14.441C7.83635 14.4795 7.91705 14.4996 7.99901 14.4996C8.08097 14.4996 8.16167 14.4795 8.23401 14.441L15.734 10.441C15.8139 10.3983 15.8807 10.3347 15.9272 10.2571C15.9738 10.1794 15.9984 10.0905 15.9984 9.99997C15.9984 9.90942 15.9738 9.82056 15.9272 9.74289C15.8807 9.66522 15.8139 9.60165 15.734 9.55897L12.813 7.99997L15.735 6.44097C15.8149 6.3983 15.8817 6.33473 15.9282 6.25706C15.9748 6.17939 15.9994 6.09053 15.9994 5.99997C15.9994 5.90941 15.9748 5.82056 15.9282 5.74289C15.8817 5.66521 15.8149 5.60165 15.735 5.55897L8.23501 1.55897ZM11.75 8.56697L14.438 9.99997L8.00001 13.433L1.56201 9.99997L4.25001 8.56697L7.76501 10.441C7.83735 10.4795 7.91805 10.4996 8.00001 10.4996C8.08197 10.4996 8.16267 10.4795 8.23501 10.441L11.75 8.56697ZM8.00001 9.43297L1.56201 5.99997L8.00001 2.56697L14.438 5.99997L8.00001 9.43297Z" fill="white"/>
</g>
<defs>
<clipPath id="clip0_690_17377">
<rect width="16" height="16" fill="white"/>
</clipPath>
</defs>
</svg>
