<svg width="16" height="16" viewBox="0 0 16 16" fill="none" xmlns="http://www.w3.org/2000/svg">
<path fill-rule="evenodd" clip-rule="evenodd" d="M6.19697 1.81667H2.16667C1.97337 1.81667 1.81667 1.97337 1.81667 2.16667V6.19697C1.81667 6.39027 1.97337 6.54697 2.16667 6.54697H6.19697C6.39027 6.54697 6.54697 6.39027 6.54697 6.19697V2.16667C6.54697 1.97337 6.39027 1.81667 6.19697 1.81667ZM6.19697 9.45303H2.16667C1.97337 9.45303 1.81667 9.60973 1.81667 9.80303V13.8333C1.81667 14.0266 1.97337 14.1833 2.16667 14.1833H6.19697C6.39027 14.1833 6.54697 14.0266 6.54697 13.8333V9.80303C6.54697 9.60973 6.39027 9.45303 6.19697 9.45303ZM13.8333 1.81667H9.80303C9.60973 1.81667 9.45303 1.97337 9.45303 2.16667V6.19697C9.45303 6.39027 9.60973 6.54697 9.80303 6.54697H13.8333C14.0266 6.54697 14.1833 6.39027 14.1833 6.19697V2.16667C14.1833 1.97337 14.0266 1.81667 13.8333 1.81667ZM13.8333 9.45303H9.80303C9.60973 9.45303 9.45303 9.60973 9.45303 9.80303V13.8333C9.45303 14.0266 9.60973 14.1833 9.80303 14.1833H13.8333C14.0266 14.1833 14.1833 14.0266 14.1833 13.8333V9.80303C14.1833 9.60973 14.0266 9.45303 13.8333 9.45303ZM2.16667 1C1.52233 1 1 1.52233 1 2.16667V6.19697C1 6.8413 1.52233 7.36364 2.16667 7.36364H6.19697C6.8413 7.36364 7.36364 6.8413 7.36364 6.19697V2.16667C7.36364 1.52233 6.8413 1 6.19697 1H2.16667ZM2.16667 8.63636C1.52233 8.63636 1 9.1587 1 9.80303V13.8333C1 14.4777 1.52233 15 2.16667 15H6.19697C6.8413 15 7.36364 14.4777 7.36364 13.8333V9.80303C7.36364 9.1587 6.8413 8.63636 6.19697 8.63636H2.16667ZM8.63636 2.16667C8.63636 1.52233 9.1587 1 9.80303 1H13.8333C14.4777 1 15 1.52233 15 2.16667V6.19697C15 6.8413 14.4777 7.36364 13.8333 7.36364H9.80303C9.1587 7.36364 8.63636 6.8413 8.63636 6.19697V2.16667ZM9.80303 8.63636C9.1587 8.63636 8.63636 9.1587 8.63636 9.80303V13.8333C8.63636 14.4777 9.1587 15 9.80303 15H13.8333C14.4777 15 15 14.4777 15 13.8333V9.80303C15 9.1587 14.4777 8.63636 13.8333 8.63636H9.80303Z" fill="white"/>
</svg>
