<svg width="16" height="16" viewBox="0 0 16 16" fill="none" xmlns="http://www.w3.org/2000/svg">
<path d="M10.1875 7.8125C10.1875 8.39266 9.95703 8.94906 9.5468 9.3593C9.13656 9.76953 8.58016 10 8 10C7.41984 10 6.86344 9.76953 6.4532 9.3593C6.04297 8.94906 5.8125 8.39266 5.8125 7.8125C5.8125 7.23234 6.04297 6.67594 6.4532 6.2657C6.86344 5.85547 7.41984 5.625 8 5.625C8.58016 5.625 9.13656 5.85547 9.5468 6.2657C9.95703 6.67594 10.1875 7.23234 10.1875 7.8125Z" fill="#A7A7A7"/>
<path d="M1 7.8125C1 7.8125 3.625 3 8 3C12.375 3 15 7.8125 15 7.8125C15 7.8125 12.375 12.625 8 12.625C3.625 12.625 1 7.8125 1 7.8125ZM8 10.875C8.81223 10.875 9.59118 10.5523 10.1655 9.97801C10.7398 9.40368 11.0625 8.62473 11.0625 7.8125C11.0625 7.00027 10.7398 6.22132 10.1655 5.64699C9.59118 5.07266 8.81223 4.75 8 4.75C7.18777 4.75 6.40882 5.07266 5.83449 5.64699C5.26016 6.22132 4.9375 7.00027 4.9375 7.8125C4.9375 8.62473 5.26016 9.40368 5.83449 9.97801C6.40882 10.5523 7.18777 10.875 8 10.875Z" fill="#A7A7A7"/>
</svg>
