<svg width="50" height="230" viewBox="0 0 50 230" fill="none" xmlns="http://www.w3.org/2000/svg">
<path d="M23.116 35V17.08L25.076 19.04H19.196V15.4H27.652V35H23.116Z" fill="#8C9EFF"/>
<rect x="0.5" y="0.5" width="49" height="49" rx="24.5" stroke="#8C9EFF"/>
<rect width="1" height="40" transform="translate(24.5 50)" fill="#8C9EFF"/>
<path d="M16.924 125V122.06L24.484 114.92C25.0813 114.379 25.52 113.893 25.8 113.464C26.08 113.035 26.2667 112.643 26.36 112.288C26.472 111.933 26.528 111.607 26.528 111.308C26.528 110.524 26.2573 109.927 25.716 109.516C25.1933 109.087 24.4187 108.872 23.392 108.872C22.5707 108.872 21.8053 109.031 21.096 109.348C20.4053 109.665 19.8173 110.16 19.332 110.832L16.028 108.704C16.7747 107.584 17.82 106.697 19.164 106.044C20.508 105.391 22.0573 105.064 23.812 105.064C25.268 105.064 26.5373 105.307 27.62 105.792C28.7213 106.259 29.5707 106.921 30.168 107.78C30.784 108.639 31.092 109.665 31.092 110.86C31.092 111.495 31.008 112.129 30.84 112.764C30.6907 113.38 30.3733 114.033 29.888 114.724C29.4213 115.415 28.7307 116.189 27.816 117.048L21.544 122.956L20.676 121.304H31.736V125H16.924Z" fill="#8C9EFF"/>
<rect x="0.5" y="90.5" width="49" height="49" rx="24.5" stroke="#8C9EFF"/>
<rect width="1" height="40" transform="translate(24.5 140)" fill="#8C9EFF"/>
<path d="M23.448 215.336C22.0853 215.336 20.732 215.159 19.388 214.804C18.044 214.431 16.9053 213.908 15.972 213.236L17.736 209.764C18.4827 210.305 19.3507 210.735 20.34 211.052C21.3293 211.369 22.328 211.528 23.336 211.528C24.4747 211.528 25.3707 211.304 26.024 210.856C26.6773 210.408 27.004 209.792 27.004 209.008C27.004 208.261 26.7147 207.673 26.136 207.244C25.5573 206.815 24.624 206.6 23.336 206.6H21.264V203.604L26.724 197.416L27.228 199.04H16.952V195.4H30.672V198.34L25.24 204.528L22.944 203.212H24.26C26.668 203.212 28.488 203.753 29.72 204.836C30.952 205.919 31.568 207.309 31.568 209.008C31.568 210.109 31.2787 211.145 30.7 212.116C30.1213 213.068 29.2347 213.843 28.04 214.44C26.8453 215.037 25.3147 215.336 23.448 215.336Z" fill="#8C9EFF"/>
<rect x="0.5" y="180.5" width="49" height="49" rx="24.5" stroke="#8C9EFF"/>
</svg>
