<svg width="32" height="33" viewBox="0 0 32 33" fill="none" xmlns="http://www.w3.org/2000/svg">
<g clip-path="url(#clip0_281_26388)">
<path d="M28 6.43937C26.52 5.97271 24.8934 5.77271 23.3334 5.77271C20.7334 5.77271 17.9334 6.30604 16 7.77271C14.0667 6.30604 11.2667 5.77271 8.66671 5.77271C6.06671 5.77271 3.26671 6.30604 1.33337 7.77271V27.306C1.33337 27.6394 1.66671 27.9727 2.00004 27.9727C2.13337 27.9727 2.20004 27.906 2.33337 27.906C4.13337 27.0394 6.73337 26.4394 8.66671 26.4394C11.2667 26.4394 14.0667 26.9727 16 28.4394C17.8 27.306 21.0667 26.4394 23.3334 26.4394C25.5334 26.4394 27.8 26.8394 29.6667 27.8394C29.8 27.906 29.8667 27.906 30 27.906C30.3334 27.906 30.6667 27.5727 30.6667 27.2394V7.77271C29.8667 7.17271 29 6.77271 28 6.43937ZM28 24.4394C26.5334 23.9727 24.9334 23.7727 23.3334 23.7727C21.0667 23.7727 17.8 24.6394 16 25.7727V10.4394C17.8 9.30604 21.0667 8.43937 23.3334 8.43937C24.9334 8.43937 26.5334 8.63937 28 9.10604V24.4394Z" fill="white"/>
<path d="M23.3334 13.7727C24.5067 13.7727 25.64 13.8927 26.6667 14.1194V12.0927C25.6134 11.8927 24.48 11.7727 23.3334 11.7727C21.0667 11.7727 19.0134 12.1594 17.3334 12.8794V15.0927C18.84 14.2394 20.9334 13.7727 23.3334 13.7727Z" fill="white"/>
<path d="M17.3334 16.426V18.6393C18.84 17.786 20.9334 17.3193 23.3334 17.3193C24.5067 17.3193 25.64 17.4393 26.6667 17.666V15.6393C25.6134 15.4393 24.48 15.3193 23.3334 15.3193C21.0667 15.3193 19.0134 15.7193 17.3334 16.426Z" fill="white"/>
<path d="M23.3334 18.8794C21.0667 18.8794 19.0134 19.2661 17.3334 19.9861V22.1994C18.84 21.3461 20.9334 20.8794 23.3334 20.8794C24.5067 20.8794 25.64 20.9994 26.6667 21.2261V19.1994C25.6134 18.9861 24.48 18.8794 23.3334 18.8794Z" fill="white"/>
</g>
<defs>
<clipPath id="clip0_281_26388">
<rect width="32" height="32" fill="white" transform="translate(0 0.5)"/>
</clipPath>
</defs>
</svg>
