<svg width="16" height="16" viewBox="0 0 16 16" fill="none" xmlns="http://www.w3.org/2000/svg">
<path d="M9.28081 1.67284L9.40131 2.00005H9.75H13.4444C14.045 2.00005 14.5 2.46442 14.5 3.00005V13.5C14.5 14.0357 14.045 14.5 13.4444 14.5H2.55556C1.95496 14.5 1.5 14.0357 1.5 13.5V3.00005C1.5 2.46442 1.95496 2.00005 2.55556 2.00005H6.25H6.59869L6.71919 1.67284C6.83041 1.37085 7.04897 1.15368 7.30566 1.00728C7.56958 0.856768 7.84195 0.800049 8 0.800049C8.15805 0.800049 8.43042 0.856768 8.69434 1.00728C8.95103 1.15368 9.16959 1.37085 9.28081 1.67284ZM9.27778 2.25005C9.27778 1.54292 8.68818 1.00005 8 1.00005C7.31182 1.00005 6.72222 1.54292 6.72222 2.25005C6.72222 2.95717 7.31182 3.50005 8 3.50005C8.68818 3.50005 9.27778 2.95717 9.27778 2.25005Z" stroke="white"/>
<path d="M6.87694 9.79954L7.224 10.1342L7.57107 9.79954L10.9101 6.57979C11.0197 6.47406 11.2061 6.47406 11.3157 6.57979C11.4151 6.67566 11.4151 6.82457 11.3157 6.92044L7.42682 10.6704C7.31718 10.7762 7.13083 10.7762 7.02118 10.6704L4.68785 8.42044C4.58843 8.32457 4.58843 8.17566 4.68785 8.07979L4.68831 8.07934C4.79759 7.97369 4.98282 7.97307 5.09349 8.07979L6.87694 9.79954Z" stroke="white"/>
</svg>
