<svg width="24" height="24" viewBox="0 0 24 24" fill="none" xmlns="http://www.w3.org/2000/svg">
<g clip-path="url(#clip0_18_20649)">
<path d="M20.4853 5.77732C21.1101 5.15248 21.1101 4.13942 20.4853 3.51458C19.8604 2.88974 18.8474 2.88974 18.2225 3.51458L12 9.73712L5.77746 3.51458C5.15262 2.88974 4.13956 2.88974 3.51472 3.51458C2.88988 4.13942 2.88988 5.15248 3.51472 5.77732L9.73726 11.9999L3.51472 18.2224C2.88988 18.8472 2.88988 19.8603 3.51472 20.4851C4.13956 21.11 5.15262 21.11 5.77746 20.4851L12 14.2626L18.2225 20.4851C18.8474 21.11 19.8604 21.11 20.4853 20.4851C21.1101 19.8603 21.1101 18.8472 20.4853 18.2224L14.2627 11.9999L20.4853 5.77732Z" fill="#D3D3D3"/>
</g>
<defs>
<clipPath id="clip0_18_20649">
<rect width="24" height="24" fill="white"/>
</clipPath>
</defs>
</svg>
