<svg width="16" height="16" viewBox="0 0 16 16" fill="none" xmlns="http://www.w3.org/2000/svg">
<path d="M9.64352 5.99436C9.8245 6.20293 10.1403 6.2253 10.3489 6.04432C10.5574 5.86334 10.5798 5.54755 10.3988 5.33898L9.64352 5.99436ZM6.35649 10.0056C6.17551 9.79707 5.85972 9.77471 5.65115 9.95568C5.44258 10.1367 5.42021 10.4525 5.60119 10.661L6.35649 10.0056ZM8.5 4.11111C8.5 3.83497 8.27614 3.61111 8 3.61111C7.72386 3.61111 7.5 3.83497 7.5 4.11111H8.5ZM7.5 11.8889C7.49999 12.165 7.72385 12.3889 7.99999 12.3889C8.27613 12.3889 8.49999 12.165 8.5 11.8889L7.5 11.8889ZM14.5 8C14.5 11.5899 11.5899 14.5 8 14.5V15.5C12.1421 15.5 15.5 12.1421 15.5 8H14.5ZM8 14.5C4.41015 14.5 1.5 11.5899 1.5 8H0.5C0.5 12.1421 3.85786 15.5 8 15.5V14.5ZM1.5 8C1.5 4.41015 4.41015 1.5 8 1.5V0.5C3.85786 0.5 0.5 3.85786 0.5 8H1.5ZM8 1.5C11.5899 1.5 14.5 4.41015 14.5 8H15.5C15.5 3.85786 12.1421 0.5 8 0.5V1.5ZM8 7.5C7.44061 7.5 6.9568 7.34794 6.62743 7.12836C6.29458 6.90646 6.16667 6.65481 6.16667 6.44444H5.16667C5.16667 7.09319 5.56109 7.61932 6.07273 7.96041C6.58787 8.30384 7.27072 8.5 8 8.5V7.5ZM6.16667 6.44444C6.16667 6.23408 6.29458 5.98243 6.62743 5.76053C6.9568 5.54095 7.44061 5.38889 8 5.38889V4.38889C7.27072 4.38889 6.58787 4.58505 6.07273 4.92848C5.56109 5.26957 5.16667 5.7957 5.16667 6.44444H6.16667ZM8 5.38889C8.76034 5.38889 9.35927 5.66677 9.64352 5.99436L10.3988 5.33898C9.87619 4.73665 8.96699 4.38889 8 4.38889V5.38889ZM8 8.5C8.55939 8.5 9.04321 8.65206 9.37258 8.87164C9.70544 9.09354 9.83335 9.34519 9.83335 9.55556H10.8334C10.8334 8.90681 10.4389 8.38068 9.92727 8.03959C9.41213 7.69616 8.72928 7.5 8 7.5V8.5ZM7.5 4.11111V4.88889H8.5V4.11111H7.5ZM7.50002 11.1111L7.5 11.8889L8.5 11.8889L8.50002 11.1111L7.50002 11.1111ZM8.00002 10.6111C7.23968 10.6111 6.64074 10.3332 6.35649 10.0056L5.60119 10.661C6.12383 11.2633 7.03304 11.6111 8.00001 11.6111L8.00002 10.6111ZM9.83335 9.55556C9.83335 9.76592 9.70544 10.0176 9.37258 10.2395C9.04322 10.4591 8.5594 10.6111 8.00002 10.6111V11.6111C8.72929 11.6111 9.41215 11.4149 9.92728 11.0715C10.4389 10.7304 10.8334 10.2043 10.8334 9.55556H9.83335ZM7.5 4.88889V8H8.5V4.88889H7.5ZM7.5 8L7.50002 11.1111L8.50002 11.1111L8.5 8L7.5 8Z" fill="white"/>
</svg>
