<svg width="16" height="16" viewBox="0 0 16 16" fill="none" xmlns="http://www.w3.org/2000/svg">
<path d="M14 6.66634V7.16634C14.2761 7.16634 14.5 6.94248 14.5 6.66634H14ZM14 9.33301H14.5C14.5 9.05687 14.2761 8.83301 14 8.83301V9.33301ZM2 9.33301V8.83301C1.72386 8.83301 1.5 9.05687 1.5 9.33301H2ZM2 6.66634H1.5C1.5 6.94248 1.72386 7.16634 2 7.16634V6.66634ZM10.5 3.33301C10.5 3.05687 10.2761 2.83301 10 2.83301C9.72386 2.83301 9.5 3.05687 9.5 3.33301H10.5ZM9.5 4.66634C9.5 4.94248 9.72386 5.16634 10 5.16634C10.2761 5.16634 10.5 4.94248 10.5 4.66634H9.5ZM10.5 7.33301C10.5 7.05687 10.2761 6.83301 10 6.83301C9.72386 6.83301 9.5 7.05687 9.5 7.33301H10.5ZM9.5 8.66634C9.5 8.94248 9.72386 9.16634 10 9.16634C10.2761 9.16634 10.5 8.94248 10.5 8.66634H9.5ZM10.5 11.333C10.5 11.0569 10.2761 10.833 10 10.833C9.72386 10.833 9.5 11.0569 9.5 11.333H10.5ZM9.5 12.6663C9.5 12.9425 9.72386 13.1663 10 13.1663C10.2761 13.1663 10.5 12.9425 10.5 12.6663H9.5ZM3.33333 2.83301C2.32081 2.83301 1.5 3.65382 1.5 4.66634H2.5C2.5 4.2061 2.8731 3.83301 3.33333 3.83301V2.83301ZM12.6667 2.83301H3.33333V3.83301H12.6667V2.83301ZM14.5 4.66634C14.5 3.65382 13.6792 2.83301 12.6667 2.83301V3.83301C13.1269 3.83301 13.5 4.2061 13.5 4.66634H14.5ZM14.5 6.66634V4.66634H13.5V6.66634H14.5ZM13.1667 7.99967C13.1667 7.53944 13.5398 7.16634 14 7.16634V6.16634C12.9875 6.16634 12.1667 6.98715 12.1667 7.99967H13.1667ZM14 8.83301C13.5398 8.83301 13.1667 8.45991 13.1667 7.99967H12.1667C12.1667 9.0122 12.9875 9.83301 14 9.83301V8.83301ZM14.5 11.333V9.33301H13.5V11.333H14.5ZM12.6667 13.1663C13.6792 13.1663 14.5 12.3455 14.5 11.333H13.5C13.5 11.7932 13.1269 12.1663 12.6667 12.1663V13.1663ZM3.33333 13.1663H12.6667V12.1663H3.33333V13.1663ZM1.5 11.333C1.5 12.3455 2.32081 13.1663 3.33333 13.1663V12.1663C2.8731 12.1663 2.5 11.7932 2.5 11.333H1.5ZM1.5 9.33301V11.333H2.5V9.33301H1.5ZM2.83333 7.99967C2.83333 8.45991 2.46024 8.83301 2 8.83301V9.83301C3.01252 9.83301 3.83333 9.0122 3.83333 7.99967H2.83333ZM2 7.16634C2.46024 7.16634 2.83333 7.53944 2.83333 7.99967H3.83333C3.83333 6.98715 3.01252 6.16634 2 6.16634V7.16634ZM1.5 4.66634V6.66634H2.5V4.66634H1.5ZM9.5 3.33301V4.66634H10.5V3.33301H9.5ZM9.5 7.33301V8.66634H10.5V7.33301H9.5ZM9.5 11.333V12.6663H10.5V11.333H9.5Z" fill="white"/>
</svg>
