<svg width="16" height="16" viewBox="0 0 16 16" fill="none" xmlns="http://www.w3.org/2000/svg">
<path d="M1.9375 3.9168C2.76719 3.54973 3.95688 3.1539 5.11375 3.03088C6.36063 2.89795 7.41813 3.09338 8.03125 3.77691V13.4456C7.15469 12.9198 6.04375 12.8474 5.01906 12.9565C3.91281 13.0755 2.79719 13.4138 1.9375 13.761V3.9168ZM8.96875 3.77691C9.58187 3.09338 10.6394 2.89795 11.8863 3.03088C13.0431 3.1539 14.2328 3.54973 15.0625 3.9168V13.761C14.2019 13.4138 13.0872 13.0745 11.9809 12.9575C10.9553 12.8474 9.84531 12.9188 8.96875 13.4456V3.77691ZM8.5 2.88009C7.57656 2.03981 6.23781 1.91481 5.01906 2.04378C3.59969 2.19556 2.16719 2.71045 1.27469 3.14001C1.1928 3.17942 1.12335 3.24294 1.07464 3.32298C1.02594 3.40302 1.00002 3.4962 1 3.5914V14.5041C1.00002 14.5871 1.01972 14.6688 1.0573 14.7416C1.09487 14.8145 1.14912 14.8762 1.21507 14.9211C1.28102 14.966 1.35657 14.9927 1.4348 14.9987C1.51302 15.0047 1.59142 14.9899 1.66281 14.9555C2.48969 14.5587 3.82188 14.0815 5.11281 13.9436C6.43375 13.8027 7.54094 14.0299 8.13438 14.8136C8.1783 14.8716 8.23395 14.9183 8.29724 14.9504C8.36052 14.9826 8.42981 14.9993 8.5 14.9993C8.57019 14.9993 8.63948 14.9826 8.70276 14.9504C8.76605 14.9183 8.8217 14.8716 8.86563 14.8136C9.45906 14.0299 10.5663 13.8027 11.8863 13.9436C13.1781 14.0815 14.5113 14.5587 15.3372 14.9555C15.4086 14.9899 15.487 15.0047 15.5652 14.9987C15.6434 14.9927 15.719 14.966 15.7849 14.9211C15.8509 14.8762 15.9051 14.8145 15.9427 14.7416C15.9803 14.6688 16 14.5871 16 14.5041V3.5914C16 3.4962 15.9741 3.40302 15.9254 3.32298C15.8766 3.24294 15.8072 3.17942 15.7253 3.14001C14.8328 2.71045 13.4003 2.19556 11.9809 2.04378C10.7622 1.91382 9.42344 2.03981 8.5 2.88009Z" fill="#A7A7A7"/>
</svg>
