<svg width="16" height="16" viewBox="0 0 16 16" fill="none" xmlns="http://www.w3.org/2000/svg">
<path d="M10.4412 11.8577L9.029 10.4446C8.48286 10.6399 7.8925 10.676 7.32662 10.5489C6.76073 10.4218 6.24259 10.1365 5.83247 9.72641C5.42235 9.31629 5.13712 8.79814 5.00998 8.23226C4.88283 7.66637 4.91899 7.07601 5.11425 6.52987L3.31175 4.72738C1.82075 6.053 1 7.55975 1 7.55975C1 7.55975 3.625 12.3722 8 12.3722C8.84035 12.3693 9.6712 12.1942 10.4412 11.8577ZM5.55875 3.26175C6.3288 2.92525 7.15964 2.75014 8 2.74725C12.375 2.74725 15 7.55975 15 7.55975C15 7.55975 14.1784 9.06563 12.6891 10.393L10.8849 8.58875C11.0801 8.04261 11.1163 7.45225 10.9891 6.88637C10.862 6.32048 10.5768 5.80234 10.1667 5.39222C9.75654 4.9821 9.23839 4.69687 8.67251 4.56973C8.10662 4.44258 7.51626 4.47874 6.97013 4.674L5.55875 3.26175Z" fill="#A7A7A7"/>
<path d="M5.83437 7.25C5.78624 7.58627 5.81709 7.92913 5.92447 8.25141C6.03185 8.57369 6.21281 8.86654 6.45301 9.10674C6.69321 9.34694 6.98606 9.5279 7.30834 9.63528C7.63062 9.74266 7.97348 9.77351 8.30975 9.72538L5.83437 7.25ZM10.1656 7.8695L7.69025 5.39325C8.02652 5.34512 8.36938 5.37596 8.69166 5.48334C9.01394 5.59072 9.30679 5.77168 9.54699 6.01189C9.78719 6.25209 9.96815 6.54493 10.0755 6.86721C10.1829 7.18949 10.2138 7.53235 10.1656 7.86862V7.8695ZM12.9403 13.1195L2.44025 2.6195L3.05975 2L13.5597 12.5L12.9403 13.1195Z" fill="#A7A7A7"/>
</svg>
