<svg width="16" height="16" viewBox="0 0 16 16" fill="none" xmlns="http://www.w3.org/2000/svg">
<g clip-path="url(#clip0_723_24558)">
<path fill-rule="evenodd" clip-rule="evenodd" d="M3 7.33366V3.98353L8 1.76131L13 3.98353V7.33366C13 10.5258 10.8374 13.4778 8 14.2989C5.16263 13.4778 3 10.5258 3 7.33366ZM2 3.33366L8 0.666992L14 3.33366V7.33366C14 11.0337 11.44 14.4937 8 15.3337C4.56 14.4937 2 11.0337 2 7.33366V3.33366ZM4.94 7.55451L6.66667 9.19782L11.06 5.00037L11.2788 5.21086L12 5.90482L11.2763 6.59624L6.66667 11.0004L4.72379 9.14412L4 8.4526L4.72379 7.76107L4.94 7.55451Z" fill="#fff"/>
</g>
<defs>
<clipPath id="clip0_723_24558">
<rect width="16" height="16" fill="white"/>
</clipPath>
</defs>
</svg>
