<svg width="16" height="16" viewBox="0 0 16 16" fill="none" xmlns="http://www.w3.org/2000/svg">
<path fill-rule="evenodd" clip-rule="evenodd" d="M3.5 2C3.10218 2 2.72064 2.15804 2.43934 2.43934C2.15804 2.72064 2 3.10218 2 3.5V12.5C2 12.8978 2.15804 13.2794 2.43934 13.5607C2.72064 13.842 3.10218 14 3.5 14H12.5C12.8978 14 13.2794 13.842 13.5607 13.5607C13.842 13.2794 14 12.8978 14 12.5V3.5C14 3.10218 13.842 2.72064 13.5607 2.43934C13.2794 2.15804 12.8978 2 12.5 2H3.5ZM12.5 2.75C12.6989 2.75 12.8897 2.82902 13.0303 2.96967C13.171 3.11032 13.25 3.30109 13.25 3.5V12.5C13.25 12.6989 13.171 12.8897 13.0303 13.0303C12.8003 13.2604 12.5 12.9863 12.5 12.661V12.5C12.5 11.75 11.75 9.5 8 9.5C4.25 9.5 3.5 11.75 3.5 12.5V12.661C3.5 12.9863 3.1997 13.2604 2.96967 13.0303C2.82902 12.8897 2.75 12.6989 2.75 12.5V3.5C2.75 3.30109 2.82902 3.11032 2.96967 2.96967C3.11032 2.82902 3.30109 2.75 3.5 2.75H12.5ZM10.25 6.5C10.25 7.09674 10.0129 7.66903 9.59099 8.09099C9.16903 8.51295 8.59674 8.75 8 8.75C7.40326 8.75 6.83097 8.51295 6.40901 8.09099C5.98705 7.66903 5.75 7.09674 5.75 6.5C5.75 5.90326 5.98705 5.33097 6.40901 4.90901C6.83097 4.48705 7.40326 4.25 8 4.25C8.59674 4.25 9.16903 4.48705 9.59099 4.90901C10.0129 5.33097 10.25 5.90326 10.25 6.5ZM8.5 10.5C8.5 10.7761 8.27614 11 8 11C7.72386 11 7.5 10.7761 7.5 10.5C7.5 10.2239 7.72386 10 8 10C8.27614 10 8.5 10.2239 8.5 10.5ZM8 12.5C8.27614 12.5 8.5 12.2761 8.5 12C8.5 11.7239 8.27614 11.5 8 11.5C7.72386 11.5 7.5 11.7239 7.5 12C7.5 12.2761 7.72386 12.5 8 12.5Z" fill="#A7A7A7"/>
</svg>
