<svg width="48" height="48" viewBox="0 0 48 48" fill="none" xmlns="http://www.w3.org/2000/svg">
<path d="M27.5999 2H13.375C11.9495 2 10.5823 2.56629 9.5743 3.5743C8.56629 4.58231 8 5.94946 8 7.375V39.625C8 41.0505 8.56629 42.4177 9.5743 43.4257C10.5823 44.4337 11.9495 45 13.375 45H34.875C36.3005 45 37.6677 44.4337 38.6757 43.4257C39.6837 42.4177 40.25 41.0505 40.25 39.625V14.6501C40.2498 13.9374 39.9666 13.2539 39.4626 12.75L29.5 2.78744C28.9961 2.2834 28.3126 2.00015 27.5999 2ZM28.1562 11.4062V6.03125L36.2188 14.0938H30.8438C30.131 14.0938 29.4474 13.8106 28.9434 13.3066C28.4394 12.8026 28.1562 12.119 28.1562 11.4062Z" fill="#8C9EFF"/>
<path d="M17.2953 31.2895C16.8419 31.2895 16.4453 31.1895 16.1053 30.9895C15.7653 30.7895 15.4986 30.4861 15.3053 30.0795C15.1186 29.6661 15.0253 29.1461 15.0253 28.5195C15.0253 27.8861 15.1153 27.3661 15.2953 26.9595C15.4753 26.5528 15.7353 26.2495 16.0753 26.0495C16.4153 25.8495 16.8219 25.7495 17.2953 25.7495C17.8019 25.7495 18.2553 25.8661 18.6553 26.0995C19.0619 26.3261 19.3819 26.6461 19.6153 27.0595C19.8553 27.4728 19.9753 27.9595 19.9753 28.5195C19.9753 29.0861 19.8553 29.5761 19.6153 29.9895C19.3819 30.4028 19.0619 30.7228 18.6553 30.9495C18.2553 31.1761 17.8019 31.2895 17.2953 31.2895ZM14.1153 33.1495V25.8295H15.6053V26.9295L15.5753 28.5295L15.6753 30.1195V33.1495H14.1153ZM17.0253 30.0095C17.2853 30.0095 17.5153 29.9495 17.7153 29.8295C17.9219 29.7095 18.0853 29.5395 18.2053 29.3195C18.3319 29.0928 18.3953 28.8261 18.3953 28.5195C18.3953 28.2061 18.3319 27.9395 18.2053 27.7195C18.0853 27.4995 17.9219 27.3295 17.7153 27.2095C17.5153 27.0895 17.2853 27.0295 17.0253 27.0295C16.7653 27.0295 16.5319 27.0895 16.3253 27.2095C16.1186 27.3295 15.9553 27.4995 15.8353 27.7195C15.7153 27.9395 15.6553 28.2061 15.6553 28.5195C15.6553 28.8261 15.7153 29.0928 15.8353 29.3195C15.9553 29.5395 16.1186 29.7095 16.3253 29.8295C16.5319 29.9495 16.7653 30.0095 17.0253 30.0095ZM23.5296 31.2895C23.0229 31.2895 22.5662 31.1761 22.1596 30.9495C21.7529 30.7161 21.4296 30.3928 21.1896 29.9795C20.9562 29.5661 20.8396 29.0795 20.8396 28.5195C20.8396 27.9528 20.9562 27.4628 21.1896 27.0495C21.4296 26.6361 21.7529 26.3161 22.1596 26.0895C22.5662 25.8628 23.0229 25.7495 23.5296 25.7495C23.9829 25.7495 24.3796 25.8495 24.7196 26.0495C25.0596 26.2495 25.3229 26.5528 25.5096 26.9595C25.6962 27.3661 25.7896 27.8861 25.7896 28.5195C25.7896 29.1461 25.6996 29.6661 25.5196 30.0795C25.3396 30.4861 25.0796 30.7895 24.7396 30.9895C24.4062 31.1895 24.0029 31.2895 23.5296 31.2895ZM23.7996 30.0095C24.0529 30.0095 24.2829 29.9495 24.4896 29.8295C24.6962 29.7095 24.8596 29.5395 24.9796 29.3195C25.1062 29.0928 25.1696 28.8261 25.1696 28.5195C25.1696 28.2061 25.1062 27.9395 24.9796 27.7195C24.8596 27.4995 24.6962 27.3295 24.4896 27.2095C24.2829 27.0895 24.0529 27.0295 23.7996 27.0295C23.5396 27.0295 23.3062 27.0895 23.0996 27.2095C22.8929 27.3295 22.7262 27.4995 22.5996 27.7195C22.4796 27.9395 22.4196 28.2061 22.4196 28.5195C22.4196 28.8261 22.4796 29.0928 22.5996 29.3195C22.7262 29.5395 22.8929 29.7095 23.0996 29.8295C23.3062 29.9495 23.5396 30.0095 23.7996 30.0095ZM25.2096 31.2095V30.1095L25.2396 28.5095L25.1396 26.9195V23.7895H26.6996V31.2095H25.2096ZM28.5334 31.2095V25.7095C28.5334 25.1028 28.7134 24.6195 29.0734 24.2595C29.4334 23.8928 29.9467 23.7095 30.6134 23.7095C30.8401 23.7095 31.0567 23.7328 31.2634 23.7795C31.4767 23.8261 31.6567 23.8995 31.8034 23.9995L31.3934 25.1295C31.3067 25.0695 31.2101 25.0228 31.1034 24.9895C30.9967 24.9561 30.8834 24.9395 30.7634 24.9395C30.5367 24.9395 30.3601 25.0061 30.2334 25.1395C30.1134 25.2661 30.0534 25.4595 30.0534 25.7195V26.2195L30.0934 26.8895V31.2095H28.5334ZM27.7034 27.1495V25.9495H31.4334V27.1495H27.7034Z" fill="white"/>
<rect x="36" width="10" height="10" rx="5" fill="#200C9F"/>
<path d="M43.1213 3.68701C43.2775 3.5308 43.2775 3.27753 43.1213 3.12132C42.9651 2.96511 42.7118 2.96511 42.5556 3.12132L41 4.67696L39.4444 3.12132C39.2882 2.96511 39.0349 2.96511 38.8787 3.12132C38.7225 3.27753 38.7225 3.5308 38.8787 3.68701L40.4343 5.24264L38.8787 6.79828C38.7225 6.95449 38.7225 7.20775 38.8787 7.36396C39.0349 7.52017 39.2882 7.52017 39.4444 7.36396L41 5.80833L42.5556 7.36396C42.7118 7.52017 42.9651 7.52017 43.1213 7.36396C43.2775 7.20775 43.2775 6.95449 43.1213 6.79828L41.5657 5.24264L43.1213 3.68701Z" fill="white"/>
</svg>
